<svg xmlns="http://www.w3.org/2000/svg" viewBox="0 0 126.85 43.13"><title>blueprism-uipath</title><path d="M0,0H43.13V43.13H0ZM38.68,38.68V4.54H4.54V38.76H38.68ZM8.41,11.13v13c0,5.94,3.3,9.49,8.83,9.49,5.69,0,9-3.55,9-9.49v-13H21.77v13c0,3.39-1.48,5.28-4.37,5.28-3.13,0-4.45-2-4.45-5.28v-13ZM32,13.86a2.76,2.76,0,1,0-.08,0Zm-2.31,2.06V33.48h4.45V15.92Zm26.8,10.39c4.87,0,8-2.89,8-7.59,0-4.53-3.13-7.5-8-7.5H48V33.57h4.54V26.39h4ZM56,22.76H52.45V14.85H56c2.64,0,4,1.48,4,3.87C60,21.28,58.56,22.76,56,22.76Zm10,1.9c0,5.28,3.38,9,8.08,9,2.89,0,4.7-1.07,5.69-2.72V33.4h4.46V15.84H79.75v2.8a6.18,6.18,0,0,0-5.69-3C69.28,15.75,66,19.55,66,24.66Zm13.77,0c0,3.05-1.89,5-4.7,5-3,0-4.53-2.14-4.53-5,0-3.13,1.73-5.11,4.53-5.11A4.65,4.65,0,0,1,79.75,24.66Zm15.67,4.95c-1.73,0-2.14-.74-2.14-2.31V19.71h3.87V15.92H93.28V11.13H88.82V16H86.76v3.79h2.06v7.59c0,4.13,1.82,6.1,6.11,6.1h2.31V29.61Zm8.74-11.22V10.14H99.71V33.57h4.45V24.25c0-3.05,1.57-4.87,4.21-4.87s4,1.73,4,4.37V33.4h4.45V23.34a7.27,7.27,0,0,0-6.92-7.59h-.5a5.61,5.61,0,0,0-5.2,2.64Zm12.38-8.33v.66H118v4.46h.91V10.72h1.4v-.66Zm9.32,0L124,14.19l-1.73-4.13h-1v5.2h.82v-4l1.74,4h.57l1.65-4v4h.75v-5.2Z" style="fill:#e63e15"/></svg>