<svg xmlns="http://www.w3.org/2000/svg" viewBox="0 0 100 30.84">
  <path
    d="M42.35,30.83V.13a3.21,3.21,0,0,1,.53-.07c3.57,0,7.14,0,10.7.05A7.1,7.1,0,0,1,58.85,2.3,7.21,7.21,0,0,1,60.6,6.51,8.39,8.39,0,0,1,59.66,12a6.68,6.68,0,0,1-2.52,2.43l-.62.34a5.29,5.29,0,0,1,3.4,3.11,11.74,11.74,0,0,1,.68,4.88,13.57,13.57,0,0,1-.37,2.77,6.73,6.73,0,0,1-6.12,5.1q-.33.06-.66.15Zm7.23-5.32h1.94a2.07,2.07,0,0,0,2.16-1.62,9.14,9.14,0,0,0,0-4.73,1.68,1.68,0,0,0-1.36-1.39c-.91-.14-1.84-.15-2.78-.21Zm0-13.16h2A1.69,1.69,0,0,0,53.41,11a6.86,6.86,0,0,0,0-4.11,1.86,1.86,0,0,0-1.52-1.5,22.25,22.25,0,0,0-2.31,0ZM22.18,30.83c0-.25-.05-.5-.05-.75V.89c0-.85,0-.86.83-.85,3.43,0,6.85,0,10.27,0a6.94,6.94,0,0,1,5.69,2.64A7.38,7.38,0,0,1,40.3,6.34a8.56,8.56,0,0,1-.95,5.79,6.53,6.53,0,0,1-2.53,2.36l-.52.28c.52.26,1,.47,1.38.74A5.24,5.24,0,0,1,40,19a13.79,13.79,0,0,1,.15,5.79,6.77,6.77,0,0,1-6.32,5.89,3.11,3.11,0,0,0-.66.14ZM29.3,17.67v7.89H31a2.12,2.12,0,0,0,2.44-2,15.75,15.75,0,0,0,.08-3.82,2,2,0,0,0-2-2.06,13.93,13.93,0,0,0-2.26-.07Zm0-5.32h2.1a1.64,1.64,0,0,0,1.68-1.22,6.9,6.9,0,0,0,0-4.4,1.75,1.75,0,0,0-1.41-1.34c-.76-.09-1.58-.08-2.37-.13ZM0,30.58c.25-1.12.53-2.24.75-3.37Q3.47,13.86,6.14.53A.54.54,0,0,1,6.76,0H14c.43,0,.56.17.64.53Q16.26,8.3,17.8,16.05q1.45,7.18,2.9,14.37c0,.12.07.24.11.36h-6.1c-.45-2.19-.9-4.38-1.36-6.6H8c-.46,0-.6.17-.68.58q-.6,3-1.22,6H.38C.22,30.82-.06,31,0,30.58ZM8.53,18.91h3.75l-1.81-9h-.12C9.75,12.88,9.15,15.86,8.53,18.91ZM66.64,30.83c0-3.53.09-7.06,0-10.59a14.18,14.18,0,0,0-.93-3.33Q63.23,8.75,60.75.59c0-.13-.06-.27-.1-.47h6.57q1.48,6,3,12.11h.16c.37-1.38.76-2.73,1.12-4.1.67-2.53,1.32-5.06,2-7.58,0-.2.31-.49.47-.49,1.93,0,3.86,0,5.89,0-.34,1.11-.64,2.15-1,3.19q-2.49,8.21-5,16.42a3.66,3.66,0,0,0-.15,1.1V30c0,.27,0,.53-.06.8Zm20.19,0V20.74a4.17,4.17,0,0,0-.17-1.16Q83.81,10.12,81,.68c-.06-.17-.11-.35-.18-.61.25,0,.47,0,.69,0h5.22c.6,0,.77.21.9.73q1.35,5.55,2.74,11.09a.53.53,0,0,0,.24.33c.31-1.11.62-2.21.91-3.32.73-2.74,1.46-5.48,2.16-8.23.11-.45.28-.6.74-.59H100c-.14.52-.26,1-.39,1.41L94.08,19.71a3.13,3.13,0,0,0-.12.86V30.84Z"
    style="fill:#da0c2d"/></svg>
