<?xml version="1.0" encoding="utf-8"?>
<!-- Generator: Adobe Illustrator 25.2.3, SVG Export Plug-In . SVG Version: 6.00 Build 0)  -->
<svg version="1.1" id="a2845237-ee55-4f7f-84b3-0f46a3e4e11f"
	 xmlns="http://www.w3.org/2000/svg" xmlns:xlink="http://www.w3.org/1999/xlink" x="0px" y="0px" viewBox="0 0 148.1 141.7"
	 style="enable-background:new 0 0 148.1 141.7;" xml:space="preserve">
<style type="text/css">
	.st0{fill:#009CB8;}
</style>
<g>
	<g>
		<path class="st0" d="M89.9,66.8l-9.7-9.6l0.5-0.7c1-1.5,1.5-3.3,1.3-5.1l-0.1-0.5L105.8,27L120,41.2L96.1,65.1L95.6,65
			c-1.7-0.2-3.5,0.2-5,1.3L89.9,66.8z M82.9,56.9l7.2,7.1c1.6-0.9,3.4-1.3,5.2-1.2L117,41.2L105.8,30L84.1,51.6
			C84.2,53.5,83.8,55.3,82.9,56.9z"/>
	</g>
	<g>
		<g>
			<path d="M39.6,110.4l-3.1-3.1L44.4,95l5.2-4.2l0.8,0.8l14.4-14.4l5.1,5.1L55.4,96.7l0.7,0.8l-4.2,5.2L39.6,110.4z M39.3,107
				l0.6,0.6l10.6-6.7l2.8-3.4l-0.9-0.9l14.4-14.4l-2.1-2L50.3,94.6l-0.9-0.9L46,96.5L39.3,107z"/>
		</g>
		<g>
			<path d="M105.9,110c-2.5,0-4.9-1-6.7-2.8L58.3,66.3c-6.6,1.9-13.7,0.1-18.5-4.8c-4.7-4.8-6.6-11.7-4.8-18.2l0.5-1.8l10.9,10.9
				l8.7-2.3l2.3-8.6L46.3,30.6l1.8-0.5c6.5-1.8,13.5,0.1,18.2,4.8c4.6,4.6,6.5,11.4,5,17.8l41.2,41.2c3.7,3.7,3.7,9.7,0,13.4
				C110.8,109,108.4,110,105.9,110z M58.8,63.9l0.5,0.5l41.4,41.3c1.4,1.4,3.2,2.1,5.2,2.1c1.9,0,3.8-0.8,5.2-2.1
				c2.8-2.8,2.8-7.5,0-10.3L68.9,53.3l0.2-0.6c1.6-5.8,0-12-4.3-16.3c-3.8-3.8-9.1-5.5-14.3-4.7l9.1,9.1l-2.9,11l-11,3l-9.1-9.1
				c-0.8,5.2,0.9,10.5,4.7,14.3c4.5,4.5,11,6,17,4L58.8,63.9z M106.6,106.1c-2.4,0-4.3-1.9-4.3-4.3c0-2.4,1.9-4.3,4.3-4.3
				c2.4,0,4.3,1.9,4.3,4.3c0,1.1-0.4,2.2-1.2,3C108.8,105.7,107.7,106.1,106.6,106.1z M106.6,99.7c-1.2,0-2.1,1-2.1,2.1
				c0,1.2,0.9,2.1,2.1,2.1c0.6,0,1.1-0.2,1.5-0.6c0.4-0.4,0.6-0.9,0.6-1.5C108.7,100.7,107.8,99.7,106.6,99.7z"/>
		</g>
	</g>
</g>
</svg>
