<svg xmlns="http://www.w3.org/2000/svg" xmlns:xlink="http://www.w3.org/1999/xlink" width="69" height="51" viewBox="0 0 69 51">
    <defs>
        <path id="r7ym777sza" d="M0 0.133L14.991 0.133 14.991 15.361 0 15.361z"/>
        <path id="kgsl54fksc" d="M0.088 0.133L18.41 0.133 18.41 15.361 0.088 15.361z"/>
        <path id="71phc7foze" d="M0 50.867L68.912 50.867 68.912 0.323 0 0.323z"/>
    </defs>
    <g fill="none" fill-rule="evenodd">
        <g>
            <g transform="translate(-24 -24) translate(24 24)">
                <g transform="translate(0 .19)">
                    <mask id="xnd6fyrddb" fill="#fff">
                        <use xlink:href="#r7ym777sza"/>
                    </mask>
                    <path fill="#0B1108" d="M5.728 3.33h-.73v8.809h.452c3.029 0 4.54-1.601 4.54-4.617 0-2.844-1.461-4.192-4.262-4.192m.228 12.03H0V.134h5.704c1.234 0 2.494.026 3.709.253 4.011.786 5.578 3.35 5.578 7.312 0 5.661-3.94 7.663-9.035 7.663" mask="url(#xnd6fyrddb)"/>
                </g>
                <g transform="translate(15.405 .19)">
                    <mask id="spcbel8xud" fill="#fff">
                        <use xlink:href="#kgsl54fksc"/>
                    </mask>
                    <path fill="#0B1108" d="M8.24 3.943L6.675 8.562h3.608L8.24 3.942zm5.047 11.418l-1.562-3.582H5.616L4.401 15.36H.088L6.827.133h4.847l6.736 15.228h-5.123z" mask="url(#spcbel8xud)"/>
                </g>
                <mask id="l0xuiweumf" fill="#fff">
                    <use xlink:href="#71phc7foze"/>
                </mask>
                <path fill="#0B1108" d="M35.527 15.55L40.523 15.55 40.523.323 35.527.323zM43.752 15.55L43.752.323 48.825.323 48.825 12.328 55.412 12.328 55.412 15.55zM63.462 9.356L63.462 15.55 58.462 15.55 58.462 9.356 53.721.323 58.816.323 61.923 6.236 64.746.323 68.912.323zM5.255 24.527L5.255 27.359 10.51 27.359 10.51 30.75 5.255 30.75 5.255 37.158 0 37.158 0 21.139 12.261 21.139 12.261 24.527zM58.72 24.5h-.766v9.265h.477c3.185 0 4.777-1.68 4.777-4.859 0-2.987-1.54-4.407-4.488-4.407m.241 12.66h-6.264v-16.02h6c1.3 0 2.624.028 3.9.266 4.22.83 5.866 3.523 5.866 7.69 0 5.957-4.14 8.063-9.502 8.063" mask="url(#l0xuiweumf)"/>
                <path fill="#7C9E28" d="M30.943 29.162c0 4.869-3.924 8.808-8.761 8.808s-8.758-3.94-8.758-8.808c0-4.867 3.92-8.812 8.758-8.812 4.837 0 8.76 3.945 8.76 8.812" mask="url(#l0xuiweumf)"/>
                <path fill="#E96523" d="M50.155 29.162c0 4.869-3.923 8.808-8.76 8.808-4.838 0-8.758-3.94-8.758-8.808 0-4.867 3.92-8.812 8.758-8.812 4.837 0 8.76 3.945 8.76 8.812" mask="url(#l0xuiweumf)"/>
                <path fill="#0B1108" d="M16.583 50.384h.748v-.753h-.748v.753zm-5.275-2.331c-.113.12-.278.181-.49.181-.14 0-.26-.025-.361-.079-.107-.064-.196-.138-.265-.227-.076-.092-.13-.19-.167-.299-.038-.1-.056-.202-.056-.311 0-.092.011-.18.037-.27.019-.083.052-.154.099-.21.06-.072.13-.128.215-.169.082-.043.19-.064.326-.064.15 0 .275.034.377.1.105.067.189.145.26.245.07.107.122.222.15.345.034.125.05.232.05.326 0 .174-.057.317-.175.432zm.46-1.861c-.16-.166-.35-.297-.558-.383-.213-.09-.434-.133-.656-.133-.41 0-.745.146-.996.437-.252.288-.39.656-.414 1.095-.015.301-.094.539-.223.702-.132.16-.325.24-.584.24h-.11c-.143 0-.27-.03-.373-.09-.107-.06-.215-.145-.314-.255-.097-.105-.193-.232-.282-.375-.113-.16-.205-.301-.28-.419-.075-.125-.17-.263-.294-.429-.107-.153-.22-.286-.34-.393-.13-.117-.27-.21-.411-.27-.154-.077-.33-.113-.528-.113-.405 0-.747.133-1.013.39-.27.261-.406.552-.406.856 0 .191.06.36.185.495.12.13.274.243.47.345.17.087.303.158.42.23.113.071.169.143.169.227 0 .143-.2.266-.59.363-.413.097-1.078.15-1.977.15-.606 0-1.072-.1-1.383-.29-.305-.192-.452-.455-.452-.805 0-.105.01-.24.038-.393l.029-.166c.009-.056.014-.087.019-.11v-.107H.069l-.01.054c-.002.02-.007.058-.01.115l-.021.165c-.018.18-.028.322-.028.45 0 .664.236 1.171.706 1.511.46.33 1.114.495 1.948.495 1.195 0 2.065-.12 2.585-.357.54-.245.816-.618.816-1.108 0-.171-.06-.327-.176-.46-.114-.132-.272-.258-.48-.367-.111-.067-.246-.14-.397-.222-.161-.095-.194-.161-.194-.202 0-.067.047-.138.145-.217.1-.076.251-.117.452-.117.127 0 .236.027.335.086.112.072.208.153.294.253.089.105.178.233.268.375l.136.217c.045.077.091.146.132.215.066.105.17.263.287.419.108.145.232.28.368.393.128.117.275.207.452.28.07.034.155.057.24.075v.028h.402c.308 0 .566-.054.767-.156.18-.092.342-.23.475-.4.152.19.34.344.558.449.249.117.499.176.751.176.413 0 .76-.154 1.028-.447.272-.294.408-.672.408-1.116 0-.288-.047-.551-.141-.781-.097-.238-.231-.442-.396-.605zm10.818 2.88h.821v-6.72h-.821v6.72zm-4.874 1.312h.747v-.753h-.747v.753zm-15.95.483h.744v-.751h-.744v.75zm12.642-2.875c-.188-.082-.33-.174-.424-.273-.103-.105-.166-.202-.19-.294-.029-.102-.041-.186-.041-.26 0-.182.056-.34.173-.488.114-.146.252-.215.426-.215.198 0 .367.148.5.44.14.303.221.715.239 1.235-.29-.025-.515-.071-.683-.145zm6.228-.953c0 .153-.014.299-.04.432-.027.127-.073.242-.131.34-.059.102-.14.183-.246.245-.11.06-.242.094-.396.094h-.587c-.236 0-.431-.084-.579-.255-.147-.169-.223-.401-.223-.69v-.58h-.833v.58c0 .307-.072.536-.22.702-.145.164-.332.243-.57.243h-.87c-.007-.745-.157-1.368-.447-1.848-.304-.509-.705-.766-1.193-.766-.359 0-.688.168-.97.5-.284.324-.426.712-.426 1.152 0 .165.028.35.089.553.06.21.17.407.325.585.165.19.38.353.65.483.25.12.572.199.952.24-.071.153-.172.29-.297.403-.148.133-.363.24-.663.332-.236.067-.45.11-.662.133-.226.018-.434.03-.617.03h-.064v.92h.064c.22 0 .474-.018.774-.054.294-.036.605-.115.933-.235.385-.143.687-.334.925-.582.234-.24.402-.552.5-.924h1.188c.19 0 .386-.046.602-.143.172-.08.31-.19.414-.332.101.138.243.247.429.332.218.094.419.143.597.143h.759c.51 0 .92-.176 1.218-.521.294-.345.442-.838.442-1.46v-4.74h-.827v4.688zm-17.74 3.828h.743v-.751h-.743v.75zm31.232-6.905h.745v-.748h-.745v.748zm-5.936 3.442c-.166-.117-.251-.26-.251-.416 0-.125.05-.224.15-.296.19-.138.47-.138.836-.087.177.02.288.044.344.064l.14.005v-.911l-.053-.01c-.061-.013-.165-.029-.31-.046-.142-.024-.331-.031-.58-.031-.367 0-.687.115-.954.345-.264.232-.397.556-.397.967 0 .258.092.49.27.692.124.143.264.248.423.312l-.5.15v.93l2.416-.753v-.92l-.81.25c-.305-.035-.546-.117-.724-.245zm11.232-.176c-.125.095-.242.176-.355.248-.08.054-.136.087-.169.107l-.028-.02-.136-.087c-.082-.051-.186-.125-.362-.25-.131-.092-.256-.192-.375-.304-.153-.138-.164-.204-.164-.222 0-.097.09-.176.26-.24.194-.074.464-.112.8-.112.085 0 .198.002.332.015.137.01.261.028.38.061.105.028.197.066.268.117.06.047.089.1.089.17 0 .02-.014.083-.146.2-.122.106-.253.215-.394.317zm2.662-.189c0 .153-.015.296-.046.432-.028.125-.07.24-.13.34-.055.099-.139.18-.247.245-.108.06-.238.094-.393.094h-1.004c-.17 0-.328-.026-.485-.08-.087-.027-.15-.053-.196-.073.027-.018.057-.039.093-.069l.04-.03c.111-.085.254-.21.423-.368.138-.13.28-.291.43-.485.147-.202.216-.378.216-.544 0-.21-.067-.388-.201-.526-.131-.136-.297-.245-.486-.327-.177-.08-.375-.138-.609-.179-.214-.036-.415-.056-.596-.056-.159 0-.344.018-.566.056-.222.033-.435.1-.63.192-.188.084-.349.196-.48.334-.14.145-.208.32-.208.521 0 .16.068.33.206.52.124.18.267.346.435.509.128.12.273.255.4.355.059.048.108.084.148.115-.068.03-.143.056-.229.084-.125.036-.274.051-.444.051h-.963c-.129 0-.237-.028-.32-.087-.083-.056-.157-.138-.217-.242-.046-.087-.096-.217-.157-.416-.052-.151-.096-.3-.136-.437l-.601-2.142h-.953l.681 2.31.005.018c.015.07.03.128.042.187.006.033.02.096.02.12 0 .076-.014.153-.039.242-.02.07-.063.138-.127.212-.07.072-.161.13-.28.171-.129.043-.272.064-.427.064h-1.716v.922h1.752c.237 0 .466-.054.686-.158.195-.095.379-.23.55-.41.126.17.293.302.491.402.193.094.409.148.64.163l.124.003h.925c.286 0 .54-.054.784-.171.218-.1.421-.225.607-.37.188.143.39.268.609.367.241.118.504.174.775.174h.966c.51 0 .922-.176 1.216-.521.295-.342.442-.835.442-1.46v-4.74h-.82v4.688zm-11.43 2.033h.824v-6.72h-.824v6.72zm7.872-4.336h.749v-.753h-.749v.753zm5.508 4.336h.823v-6.72h-.823v6.72zm24.061-3.161v1.154c0 .4-.068.69-.201.86-.13.169-.336.248-.628.248-.18 0-.323-.066-.436-.21-.114-.148-.173-.36-.173-.625v-.7h-.824v.557c0 .312-.072.557-.218.73-.146.169-.356.248-.65.248-.361 0-.61-.107-.763-.334-.158-.238-.24-.618-.24-1.14v-.06h-.82V47.578c-.003.102-.024.197-.056.289-.03.081-.09.15-.176.204-.091.053-.223.08-.397.08h-1.778c-.161 0-.3-.05-.424-.149-.128-.107-.243-.283-.343-.518l-.024-.051c-.045-.11-.095-.228-.155-.36-.067-.151-.11-.243-.125-.279l-.018-.036h-.917v.136l.014.018c.032.048.078.115.136.217.056.094.11.199.165.321.059.136.11.279.147.427.046.158.066.314.066.48 0 .293-.058.557-.175.781-.107.215-.305.396-.585.539-.25.115-.463.186-.653.22-.198.033-.394.05-.577.05h-.062v.92h.062c.264 0 .504-.023.711-.064.2-.043.45-.128.76-.26.296-.146.563-.355.791-.631.216-.263.373-.58.479-.96.064.028.14.054.232.079.096.023.185.038.269.04h1.782c.28 0 .525-.058.732-.175.18-.097.344-.228.502-.391.14.176.32.317.54.419.248.114.551.176.9.176.314 0 .553-.04.722-.12.16-.074.31-.166.457-.281.108.112.26.207.457.284.216.076.439.117.658.117.52 0 .932-.176 1.222-.524.288-.344.433-.83.433-1.455v-1.21h-.819zm-16.903.728c-.129.11-.303.211-.517.301-.238.11-.455.16-.663.16-.193 0-.34-.055-.45-.173-.106-.112-.157-.25-.157-.416 0-.19.042-.342.128-.467.09-.128.214-.23.378-.307.166-.074.353-.13.578-.176.23-.038.46-.064.703-.076v1.154zm2.13-2.413c-.171.153-.258.342-.258.559 0 .153.055.296.158.416.112.13.227.243.351.345l1.154.955c.328.268.553.485.667.653.112.156.165.294.165.409 0 .184-.071.324-.211.429-.143.107-.368.158-.665.158h-1.838c-.175 0-.312-.03-.407-.09-.088-.053-.164-.135-.243-.252-.068-.115-.114-.23-.132-.35-.027-.135-.04-.276-.04-.419V44.68l-.772.04c-.411.027-.778.073-1.12.152-.351.074-.65.184-.888.324-.247.145-.437.33-.577.549-.134.214-.205.477-.205.771 0 .424.137.774.403 1.036.27.266.623.399 1.047.399.294 0 .563-.049.798-.146.186-.079.351-.173.49-.278.011.15.047.304.105.465.075.204.188.388.33.541.145.161.321.291.522.39.202.095.429.146.674.149h1.859c.28 0 .527-.039.74-.11.216-.077.404-.189.55-.334.137-.136.237-.3.303-.488.066-.189.1-.386.1-.585 0-.23-.06-.457-.18-.674-.12-.22-.316-.442-.595-.674l-1.12-.922c-.137-.112-.254-.214-.363-.306-.129-.117-.137-.156-.137-.156s.01-.038.145-.112c.094-.056.193-.107.297-.156l2.356-1.139.035-.018v-.97l-2.79 1.351c-.312.153-.544.299-.708.447zm12.562.398h.748v-.748h-.748v.748zm-15.425-.567h.751v-.753h-.751v.753zm-1.13 0h.75v-.753h-.75v.753zm15.928 1.455h.752v-.753h-.752v.753zm1.248 0h.749v-.752h-.749v.753z" mask="url(#l0xuiweumf)"/>
            </g>
        </g>
    </g>
</svg>
